<svg width="64" height="64" viewBox="0 0 64 64" fill="none" xmlns="http://www.w3.org/2000/svg">
<path d="M30.4204 58.842C24.8753 58.8588 19.5264 56.7909 15.4346 53.0486C11.3428 49.3062 8.80695 44.1627 8.33001 38.6382C7.85307 33.1136 9.46987 27.6116 12.8598 23.2233C16.2497 18.8351 21.165 15.8811 26.6309 14.9473C44.631 11.4737 49.3679 9.83156 55.6837 2C58.8416 8.31578 61.9996 15.2 61.9996 27.2631C61.9996 44.6315 46.9047 58.842 30.4204 58.842Z" stroke="#198C21" stroke-width="4" stroke-linecap="round" stroke-linejoin="round"/>
<path d="M2 62C2 52.5263 7.84214 45.0737 18.0422 43.0526C25.6843 41.5369 33.5791 36.7369 36.737 33.579" stroke="#109037" stroke-width="4" stroke-linecap="round" stroke-linejoin="round"/>
</svg>
