<svg width="45" height="45" viewBox="0 0 45 45" fill="none" xmlns="http://www.w3.org/2000/svg">
<path d="M22.5 3.55257C18.0893 3.55257 13.8593 4.61305 10.7405 6.50072C7.62169 8.3884 5.86957 10.9486 5.86957 13.6182C5.86957 16.2878 7.62169 18.848 10.7405 20.7357C13.8593 22.6233 18.0893 23.6838 22.5 23.6838C26.9107 23.6838 31.1407 22.6233 34.2595 20.7357C37.3783 18.848 39.1304 16.2878 39.1304 13.6182C39.1304 10.9486 37.3783 8.3884 34.2595 6.50072C31.1407 4.61305 26.9107 3.55257 22.5 3.55257ZM0 13.6182C-6.22665e-08 11.8298 0.58198 10.059 1.71271 8.40674C2.84344 6.7545 4.50078 5.25324 6.5901 3.98868C8.67942 2.72411 11.1598 1.721 13.8896 1.03662C16.6194 0.352245 19.5453 0 22.5 0C25.4547 0 28.3806 0.352245 31.1104 1.03662C33.8402 1.721 36.3206 2.72411 38.4099 3.98868C40.4992 5.25324 42.1566 6.7545 43.2873 8.40674C44.418 10.059 45 11.8298 45 13.6182C45 17.23 42.6295 20.6938 38.4099 23.2477C34.1903 25.8016 28.4674 27.2364 22.5 27.2364C16.5326 27.2364 10.8097 25.8016 6.5901 23.2477C2.37053 20.6938 1.25753e-07 17.23 0 13.6182Z" fill="white"/>
<path d="M35.3459 23.9592L41.0393 42.9063C41.1321 43.2154 41.0877 43.5339 40.9108 43.8293C40.7338 44.1247 40.4305 44.3863 40.0319 44.5876C39.6333 44.7889 39.1537 44.9226 38.6418 44.9751C38.13 45.0275 37.6043 44.9969 37.1185 44.8862L24.2211 41.9495C23.1112 41.6968 21.8875 41.6968 20.7776 41.9495L7.88022 44.8862C7.39435 44.9969 6.86869 45.0275 6.35686 44.9751C5.84504 44.9226 5.36536 44.7889 4.96677 44.5876C4.56817 44.3863 4.26491 44.1247 4.08793 43.8293C3.91095 43.5339 3.86658 43.2154 3.95935 42.9063L9.65283 23.9592L15.4246 24.594L10.6624 40.4574L18.7076 38.6242C21.1517 38.0673 23.847 38.0673 26.2911 38.6242L34.3363 40.4574L29.5741 24.594L35.3459 23.9592Z" fill="white"/>
</svg>
