<svg width="62" height="34" viewBox="0 0 62 34" fill="none" xmlns="http://www.w3.org/2000/svg">
<path d="M55.9658 3.74566e-07C55.0441 0.000297385 54.1351 0.215479 53.311 0.62846C52.487 1.04144 51.7705 1.64085 51.2186 2.37909C50.6667 3.11734 50.2944 3.97409 50.1315 4.88132C49.9685 5.78855 50.0193 6.72129 50.2798 7.60547L41.0797 16.8042C39.8664 16.4 38.5548 16.4 37.3414 16.8042L30.521 9.98379C30.7455 9.10802 30.7667 8.19253 30.583 7.3073C30.3994 6.42208 30.0158 5.59056 29.4615 4.87633C28.9072 4.1621 28.197 3.58406 27.3851 3.18642C26.5731 2.78877 25.681 2.58205 24.777 2.58205C23.8729 2.58205 22.9808 2.78877 22.1689 3.18642C21.3569 3.58406 20.6467 4.1621 20.0924 4.87633C19.5381 5.59056 19.1545 6.42208 18.9709 7.3073C18.7873 8.19253 18.8085 9.10802 19.0329 9.98379L7.62598 21.383C6.35957 21.0081 5.00433 21.066 3.77449 21.5475C2.54465 22.029 1.51036 22.9066 0.835092 24.0417C0.159825 25.1767 -0.117897 26.5045 0.045824 27.815C0.209545 29.1256 0.805369 30.3442 1.73912 31.2782C2.67287 32.2123 3.89129 32.8085 5.20178 32.9726C6.51228 33.1368 7.8401 32.8595 8.97538 32.1846C10.1107 31.5097 10.9886 30.4757 11.4705 29.246C11.9524 28.0163 12.0107 26.6611 11.6363 25.3945L22.8988 14.1333C24.1121 14.5377 25.4238 14.5377 26.6371 14.1333L33.4588 20.955C33.2344 21.8308 33.2131 22.7463 33.3968 23.6315C33.5804 24.5167 33.964 25.3482 34.5183 26.0625C35.0726 26.7767 35.7828 27.3547 36.5948 27.7524C37.4067 28.15 38.2988 28.3567 39.2029 28.3567C40.1069 28.3567 40.999 28.15 41.811 27.7524C42.6229 27.3547 43.3331 26.7767 43.8874 26.0625C44.4417 25.3482 44.8253 24.5167 45.0089 23.6315C45.1926 22.7463 45.1714 21.8308 44.9469 20.955L54.29 11.617C55.1057 11.8577 55.9636 11.92 56.8055 11.7999C57.6474 11.6798 58.4536 11.38 59.1694 10.9209C59.8852 10.4617 60.4939 9.85396 60.9542 9.13885C61.4144 8.42374 61.7155 7.618 61.8369 6.77629C61.9583 5.93459 61.8972 5.07661 61.6579 4.26058C61.4185 3.44454 61.0064 2.68955 60.4495 2.04681C59.8926 1.40408 59.204 0.888644 58.4304 0.535484C57.6568 0.182323 56.8162 -0.000301877 55.9658 3.74566e-07Z" fill="#C8E8CD"/>
</svg>
