<svg width="73" height="43" viewBox="0 0 73 43" fill="none" xmlns="http://www.w3.org/2000/svg">
<path d="M20.5909 41.5V38.1667C20.5909 33.7464 22.267 29.5072 25.2506 26.3816C28.2341 23.2559 32.2806 21.5 36.5 21.5M36.5 21.5C40.7194 21.5 44.7659 23.2559 47.7494 26.3816C50.733 29.5072 52.4091 33.7464 52.4091 38.1667V41.5M36.5 21.5C39.0316 21.5 41.4595 20.4464 43.2497 18.5711C45.0398 16.6957 46.0455 14.1522 46.0455 11.5C46.0455 8.84783 45.0398 6.3043 43.2497 4.42893C41.4595 2.55357 39.0316 1.5 36.5 1.5C33.9684 1.5 31.5405 2.55357 29.7503 4.42893C27.9602 6.3043 26.9545 8.84783 26.9545 11.5C26.9545 14.1522 27.9602 16.6957 29.7503 18.5711C31.5405 20.4464 33.9684 21.5 36.5 21.5ZM1.5 41.5V38.1667C1.5 35.5145 2.50568 32.971 4.2958 31.0956C6.08592 29.2202 8.51384 28.1667 11.0455 28.1667M11.0455 28.1667C12.7332 28.1667 14.3518 27.4643 15.5452 26.214C16.7386 24.9638 17.4091 23.2681 17.4091 21.5C17.4091 19.7319 16.7386 18.0362 15.5452 16.786C14.3518 15.5357 12.7332 14.8333 11.0455 14.8333C9.35771 14.8333 7.7391 15.5357 6.54568 16.786C5.35227 18.0362 4.68182 19.7319 4.68182 21.5C4.68182 23.2681 5.35227 24.9638 6.54568 26.214C7.7391 27.4643 9.35771 28.1667 11.0455 28.1667ZM71.5 41.5V38.1667C71.5 35.5145 70.4943 32.971 68.7042 31.0956C66.9141 29.2202 64.4862 28.1667 61.9545 28.1667M61.9545 28.1667C63.6423 28.1667 65.2609 27.4643 66.4543 26.214C67.6477 24.9638 68.3182 23.2681 68.3182 21.5C68.3182 19.7319 67.6477 18.0362 66.4543 16.786C65.2609 15.5357 63.6423 14.8333 61.9545 14.8333C60.2668 14.8333 58.6482 15.5357 57.4548 16.786C56.2614 18.0362 55.5909 19.7319 55.5909 21.5C55.5909 23.2681 56.2614 24.9638 57.4548 26.214C58.6482 27.4643 60.2668 28.1667 61.9545 28.1667Z" stroke="white" stroke-width="3" stroke-linecap="round" stroke-linejoin="round"/>
</svg>
