<svg width="53" height="44" viewBox="0 0 53 44" fill="none" xmlns="http://www.w3.org/2000/svg">
<path d="M2.14141 9.27769e-05C1.57348 9.27769e-05 1.0288 0.231878 0.627206 0.644457C0.225613 1.05704 0 1.61661 0 2.20009C0 2.78356 0.225613 3.34314 0.627206 3.75572C1.0288 4.1683 1.57348 4.40008 2.14141 4.40008H6.89535L12.5144 27.5C12.992 29.458 14.6987 30.8 16.6623 30.8H43.3658C45.2995 30.8 46.9419 29.48 47.4495 27.566L53 6.60008H48.5159L43.3636 26.4H16.6602L11.0433 3.30009C10.8112 2.35239 10.2764 1.5121 9.52432 0.913781C8.77226 0.315461 7.84653 -0.00627644 6.89535 9.27769e-05H2.14141ZM40.6869 30.8C37.1642 30.8 34.2626 33.781 34.2626 37.4C34.2626 41.019 37.1642 44 40.6869 44C44.2095 44 47.1111 41.019 47.1111 37.4C47.1111 33.781 44.2095 30.8 40.6869 30.8ZM21.4141 30.8C17.8915 30.8 14.9899 33.781 14.9899 37.4C14.9899 41.019 17.8915 44 21.4141 44C24.9368 44 27.8384 41.019 27.8384 37.4C27.8384 33.781 24.9368 30.8 21.4141 30.8ZM27.8384 9.27769e-05V11.0001H21.4141L29.9798 19.8001L38.5455 11.0001H32.1212V9.27769e-05H27.8384ZM21.4141 35.2C22.6219 35.2 23.5556 36.1592 23.5556 37.4C23.5556 38.6408 22.6219 39.6 21.4141 39.6C20.2064 39.6 19.2727 38.6408 19.2727 37.4C19.2727 36.1592 20.2064 35.2 21.4141 35.2ZM40.6869 35.2C41.8946 35.2 42.8283 36.1592 42.8283 37.4C42.8283 38.6408 41.8946 39.6 40.6869 39.6C39.4791 39.6 38.5455 38.6408 38.5455 37.4C38.5455 36.1592 39.4791 35.2 40.6869 35.2Z" fill="#C8E8CD"/>
</svg>
