<svg width="65" height="65" viewBox="0 0 65 65" fill="none" xmlns="http://www.w3.org/2000/svg">
<path d="M32.5 65C28.0042 65 23.7792 64.1463 19.825 62.439C15.8708 60.7316 12.4312 58.4166 9.50625 55.4937C6.58125 52.5709 4.26617 49.1313 2.561 45.175C0.855837 41.2187 0.00217078 36.9937 4.11392e-06 32.5C-0.00216255 28.0063 0.851504 23.7813 2.561 19.825C4.2705 15.8687 6.58558 12.4291 9.50625 9.50625C12.4269 6.58342 15.8665 4.26833 19.825 2.561C23.7835 0.853667 28.0085 0 32.5 0C36.9915 0 41.2165 0.853667 45.175 2.561C49.1335 4.26833 52.5731 6.58342 55.4937 9.50625C58.4144 12.4291 60.7305 15.8687 62.4422 19.825C64.1539 23.7813 65.0065 28.0063 65 32.5C64.9935 36.9937 64.1398 41.2187 62.439 45.175C60.7381 49.1313 58.4231 52.5709 55.4937 55.4937C52.5644 58.4166 49.1248 60.7327 45.175 62.4422C41.2251 64.1517 37.0001 65.0043 32.5 65ZM32.5 58.5C39.7583 58.5 45.9062 55.9812 50.9437 50.9437C55.9812 45.9062 58.5 39.7583 58.5 32.5C58.5 25.2417 55.9812 19.0937 50.9437 14.0562C45.9062 9.01875 39.7583 6.5 32.5 6.5C25.2417 6.5 19.0937 9.01875 14.0562 14.0562C9.01875 19.0937 6.5 25.2417 6.5 32.5C6.5 39.7583 9.01875 45.9062 14.0562 50.9437C19.0937 55.9812 25.2417 58.5 32.5 58.5ZM32.5 52C27.0833 52 22.4792 50.1042 18.6875 46.3125C14.8958 42.5208 13 37.9167 13 32.5C13 27.0833 14.8958 22.4792 18.6875 18.6875C22.4792 14.8958 27.0833 13 32.5 13C37.9166 13 42.5208 14.8958 46.3125 18.6875C50.1041 22.4792 52 27.0833 52 32.5C52 37.9167 50.1041 42.5208 46.3125 46.3125C42.5208 50.1042 37.9166 52 32.5 52ZM32.5 45.5C36.075 45.5 39.1354 44.2271 41.6812 41.6812C44.2271 39.1354 45.5 36.075 45.5 32.5C45.5 28.925 44.2271 25.8646 41.6812 23.3187C39.1354 20.7729 36.075 19.5 32.5 19.5C28.925 19.5 25.8646 20.7729 23.3187 23.3187C20.7729 25.8646 19.5 28.925 19.5 32.5C19.5 36.075 20.7729 39.1354 23.3187 41.6812C25.8646 44.2271 28.925 45.5 32.5 45.5ZM32.5 39C30.7125 39 29.1828 38.3641 27.911 37.0922C26.6392 35.8204 26.0022 34.2897 26 32.5C25.9978 30.7103 26.6348 29.1807 27.911 27.911C29.1872 26.6413 30.7168 26.0043 32.5 26C34.2831 25.9957 35.8139 26.6327 37.0922 27.911C38.3706 29.1893 39.0065 30.719 39 32.5C38.9935 34.281 38.3576 35.8117 37.0922 37.0922C35.8269 38.3727 34.2961 39.0087 32.5 39Z" fill="#36A221"/>
</svg>
