<svg width="45" height="45" viewBox="0 0 45 45" fill="none" xmlns="http://www.w3.org/2000/svg">
<path d="M0 45C0 40.4534 1.80612 36.0931 5.02103 32.8782C8.23594 29.6633 12.5963 27.8571 17.1429 27.8571C21.6894 27.8571 26.0498 29.6633 29.2647 32.8782C32.4796 36.0931 34.2857 40.4534 34.2857 45H30C30 41.5901 28.6454 38.3198 26.2342 35.9086C23.823 33.4974 20.5528 32.1429 17.1429 32.1429C13.7329 32.1429 10.4627 33.4974 8.05148 35.9086C5.6403 38.3198 4.28571 41.5901 4.28571 45H0ZM17.1429 25.7143C10.0393 25.7143 4.28571 19.9607 4.28571 12.8571C4.28571 5.75357 10.0393 0 17.1429 0C24.2464 0 30 5.75357 30 12.8571C30 19.9607 24.2464 25.7143 17.1429 25.7143ZM17.1429 21.4286C21.8786 21.4286 25.7143 17.5929 25.7143 12.8571C25.7143 8.12143 21.8786 4.28571 17.1429 4.28571C12.4071 4.28571 8.57143 8.12143 8.57143 12.8571C8.57143 17.5929 12.4071 21.4286 17.1429 21.4286ZM34.8943 29.3636C37.906 30.7194 40.462 32.9164 42.2548 35.6904C44.0476 38.4643 45.0009 41.6971 45 45H40.7143C40.715 42.5228 40.0001 40.098 38.6555 38.0175C37.3109 35.9369 35.3939 34.2891 33.135 33.2721L34.8943 29.3636ZM33.42 5.17071C35.579 6.06064 37.4249 7.57187 38.7236 9.51264C40.0223 11.4534 40.7152 13.7362 40.7143 16.0714C40.7147 19.012 39.6158 21.8465 37.6335 24.0184C35.6511 26.1903 32.9284 27.5427 30 27.81V23.4964C31.5877 23.269 33.0607 22.5386 34.2028 21.4124C35.3448 20.2862 36.0958 18.8235 36.3453 17.2391C36.5949 15.6547 36.33 14.0321 35.5894 12.6093C34.8488 11.1866 33.6717 10.0387 32.2307 9.33429L33.42 5.17071Z" fill="white"/>
</svg>
