<svg width="18" height="20" viewBox="0 0 18 20" fill="none" xmlns="http://www.w3.org/2000/svg">
<path d="M16.8449 8.68887H3.94187L9.57899 2.25701C10.0295 1.74299 10.0295 0.899463 9.57899 0.385442C9.47212 0.263258 9.34518 0.166322 9.20544 0.100183C9.0657 0.0340437 8.91589 0 8.76461 0C8.61332 0 8.46352 0.0340437 8.32378 0.100183C8.18403 0.166322 8.0571 0.263258 7.95023 0.385442L0.337816 9.07109C0.23073 9.19302 0.145771 9.33785 0.0878046 9.4973C0.0298377 9.65674 0 9.82766 0 10.0003C0 10.1729 0.0298377 10.3438 0.0878046 10.5033C0.145771 10.6627 0.23073 10.8075 0.337816 10.9295L7.95023 19.6151C8.05717 19.7371 8.18414 19.8339 8.32387 19.9C8.4636 19.966 8.61336 20 8.76461 20C8.91585 20 9.06561 19.966 9.20535 19.9C9.34508 19.8339 9.47204 19.7371 9.57899 19.6151C9.68593 19.4931 9.77076 19.3482 9.82864 19.1888C9.88652 19.0294 9.91631 18.8585 9.91631 18.6859C9.91631 18.5134 9.88652 18.3425 9.82864 18.183C9.77076 18.0236 9.68593 17.8788 9.57899 17.7567L3.94187 11.3249H16.8449C17.4802 11.3249 18 10.7318 18 10.0069C18 9.28197 17.4802 8.68887 16.8449 8.68887Z" fill="white"/>
</svg>
