<svg width="27" height="30" viewBox="0 0 27 30" fill="none" xmlns="http://www.w3.org/2000/svg">
<path d="M10.9925 27.125C11.2339 27.543 11.581 27.8901 11.9991 28.1315C12.4171 28.3728 12.8913 28.4999 13.374 28.4999C13.8567 28.4999 14.3309 28.3728 14.7489 28.1315C15.167 27.8901 15.5141 27.543 15.7555 27.125M1.35925 19.3233C1.17962 19.5201 1.06108 19.765 1.01805 20.028C0.975011 20.291 1.00933 20.5608 1.11684 20.8047C1.22435 21.0485 1.40041 21.2559 1.6236 21.4015C1.84679 21.5472 2.10749 21.6248 2.374 21.625H24.374C24.6405 21.6251 24.9012 21.5478 25.1246 21.4024C25.3479 21.257 25.5242 21.0499 25.632 20.8062C25.7398 20.5625 25.7744 20.2927 25.7317 20.0297C25.689 19.7667 25.5708 19.5217 25.3915 19.3246C23.5627 17.4395 21.624 15.4361 21.624 9.25C21.624 7.06196 20.7548 4.96354 19.2076 3.41637C17.6605 1.86919 15.562 1 13.374 1C11.186 1 9.08754 1.86919 7.54036 3.41637C5.99319 4.96354 5.124 7.06196 5.124 9.25C5.124 15.4361 3.18387 17.4395 1.35925 19.3233Z" stroke="white" stroke-width="2" stroke-linecap="round" stroke-linejoin="round"/>
</svg>
