<svg width="43" height="40" viewBox="0 0 43 40" fill="none" xmlns="http://www.w3.org/2000/svg">
<path d="M6.42285 0.5V0.500977C7.29854 0.494473 8.14275 0.819879 8.82031 1.41211C9.49738 2.00407 9.96917 2.82692 10.1719 3.74219L14.5059 23.2998H33.0273L35.9961 11H13.2305L13.1436 10.6084L12.3018 6.80859L12.167 6.2002H41.6348L41.4863 6.81738L37.1172 24.9258V24.9268C36.7391 26.4877 35.6261 27.6843 34.2002 28.0088C35.8084 29.1124 36.8681 31.101 36.8682 33.2998C36.8682 36.6431 34.4171 39.5 31.3154 39.5C28.214 39.4998 25.7627 36.6429 25.7627 33.2998C25.7628 31.1587 26.7699 29.219 28.3076 28.0996H19.166C20.7037 29.219 21.7109 31.1587 21.7109 33.2998C21.7109 36.643 19.2597 39.4998 16.1582 39.5C13.0566 39.5 10.6055 36.6431 10.6055 33.2998C10.6055 31.0976 11.6688 29.1064 13.2812 28.0039C11.8453 27.6639 10.7066 26.4501 10.3545 24.8584L6.02051 5.2998H2.68457C1.42725 5.2998 0.500141 4.16305 0.5 2.90039C0.5 1.63761 1.42716 0.5 2.68457 0.5H6.42285ZM16.1582 31.9004C15.5428 31.9004 14.9737 32.4499 14.9736 33.2998C14.9736 34.1498 15.5428 34.7002 16.1582 34.7002C16.7735 34.7 17.3418 34.1497 17.3418 33.2998C17.3417 32.4497 16.7748 31.9006 16.1582 31.9004ZM31.3154 31.9004C30.7002 31.9006 30.1319 32.4501 30.1318 33.2998C30.1318 34.1497 30.7001 34.7 31.3154 34.7002C31.9309 34.7002 32.5 34.1498 32.5 33.2998C32.4999 32.4496 31.9322 31.9004 31.3154 31.9004Z" fill="#00A73E" stroke="#00A73E"/>
</svg>
