<svg width="64" height="38" viewBox="0 0 64 38" fill="none" xmlns="http://www.w3.org/2000/svg">
<mask id="path-1-outside-1_403_209" maskUnits="userSpaceOnUse" x="0" y="-0.90625" width="64" height="38" fill="black">
<rect fill="white" y="-0.90625" width="64" height="38"/>
<path d="M34.0811 16.8359C35.1878 15.7972 35.9657 14.5945 36.4148 13.2278C36.8639 11.861 37.0885 10.4617 37.0885 9.02966C37.0885 7.59767 36.8639 6.19919 36.4148 4.83421C35.9657 3.46923 35.1878 2.2665 34.0811 1.22602C36.3567 1.40943 38.2363 2.2471 39.7199 3.73906C41.2036 5.23277 41.9454 6.9963 41.9454 9.02966C41.9454 11.063 41.2036 12.8266 39.7199 14.3203C38.2363 15.814 36.3567 16.6517 34.0811 16.8333M48.4473 36.0938C48.6518 35.674 48.8152 35.2305 48.9375 34.7632C49.0598 34.2958 49.12 33.8241 49.118 33.3479V31.6179C49.118 30.3217 48.8523 29.0872 48.321 27.9145C47.7897 26.7417 46.9496 25.7753 45.8008 25.0152C47.8559 25.5707 49.7325 26.367 51.4306 27.4039C53.1288 28.4391 53.9779 29.8438 53.9779 31.6179V33.3479C53.9779 34.1239 53.6771 34.7764 53.0757 35.3055C52.4782 35.831 51.7374 36.0938 50.8532 36.0938H48.4473ZM53.9779 14.6271H49.4668C49.0398 14.6271 48.6819 14.5001 48.3932 14.2462C48.1045 13.9922 47.9611 13.6775 47.9631 13.3018C47.9651 12.9262 48.1085 12.6123 48.3932 12.3601C48.6779 12.1079 49.0358 11.9818 49.4668 11.9818H53.9779V8.01386C53.9779 7.63823 54.1222 7.32432 54.4109 7.07214C54.6976 6.81819 55.0545 6.69121 55.4816 6.69121C55.9086 6.69121 56.2655 6.81819 56.5522 7.07214C56.8389 7.32609 56.9832 7.64 56.9853 8.01386V11.9818H61.4963C61.9214 11.9818 62.2782 12.1088 62.5669 12.3627C62.8556 12.6167 63 12.9315 63 13.3071C63 13.6827 62.8556 13.9967 62.5669 14.2488C62.2782 14.501 61.9214 14.6271 61.4963 14.6271H56.9853V18.5951C56.9853 18.9707 56.8409 19.2846 56.5522 19.5368C56.2635 19.789 55.9056 19.916 55.4786 19.9177C55.0515 19.9195 54.6946 19.7925 54.4079 19.5368C54.1212 19.2811 53.9779 18.9672 53.9779 18.5951V14.6271ZM22.0516 16.9682C19.5715 16.9682 17.4473 16.1905 15.679 14.6351C13.9107 13.0796 13.0285 11.2112 13.0325 9.02966C13.0365 6.84817 13.9187 4.98058 15.679 3.42691C17.4393 1.87324 19.5645 1.09552 22.0546 1.09375C24.5447 1.09199 26.6679 1.86971 28.4242 3.42691C30.1805 4.98411 31.0637 6.8517 31.0737 9.02966C31.0838 11.2076 30.2006 13.077 28.4242 14.6377C26.6479 16.1984 24.5237 16.9744 22.0516 16.9656M1 33.3479V31.7396C1 30.648 1.36088 29.626 2.08265 28.6737C2.80643 27.7231 3.77981 26.9851 5.00281 26.4596C7.83977 25.2621 10.6797 24.3645 13.5227 23.7666C16.3637 23.167 19.2066 22.8672 22.0516 22.8672C24.8966 22.8672 27.7406 23.167 30.5835 23.7666C33.4265 24.3662 36.2655 25.2639 39.1004 26.4596C40.3234 26.9851 41.2958 27.7231 42.0176 28.6737C42.7413 29.626 43.1032 30.6488 43.1032 31.7422V33.3479C43.1032 34.1239 42.8035 34.7764 42.204 35.3055C41.6045 35.831 40.8627 36.0938 39.9786 36.0938H4.12767C3.24551 36.0938 2.50369 35.8301 1.90221 35.3028C1.30274 34.7755 1 34.1239 1 33.3479ZM22.0546 14.3229C23.7087 14.3229 25.1251 13.8044 26.304 12.7675C27.4829 11.7305 28.0714 10.4855 28.0694 9.03231C28.0674 7.57915 27.4789 6.33322 26.304 5.29449C25.1292 4.25577 23.7127 3.73817 22.0546 3.7417C20.3966 3.74523 18.9811 4.26283 17.8082 5.29449C16.6353 6.32616 16.0459 7.5721 16.0399 9.03231C16.0339 10.4925 16.6233 11.7376 17.8082 12.7675C18.9931 13.7974 20.4086 14.3159 22.0546 14.3229ZM4.01038 33.4484H40.0989V31.7396C40.0989 31.1541 39.8843 30.603 39.4553 30.0863C39.0262 29.5713 38.4318 29.1357 37.6719 28.7795C35.1958 27.7249 32.6436 26.9172 30.0151 26.3564C27.3867 25.7956 24.7332 25.5152 22.0546 25.5152C19.3761 25.5152 16.7235 25.7956 14.0971 26.3564C11.4667 26.9172 8.9144 27.7249 6.44034 28.7795C5.68047 29.1357 5.08602 29.5713 4.65697 30.0863C4.22791 30.6012 4.01239 31.1523 4.01038 31.7396V33.4484Z"/>
</mask>
<path d="M34.0811 16.8359C35.1878 15.7972 35.9657 14.5945 36.4148 13.2278C36.8639 11.861 37.0885 10.4617 37.0885 9.02966C37.0885 7.59767 36.8639 6.19919 36.4148 4.83421C35.9657 3.46923 35.1878 2.2665 34.0811 1.22602C36.3567 1.40943 38.2363 2.2471 39.7199 3.73906C41.2036 5.23277 41.9454 6.9963 41.9454 9.02966C41.9454 11.063 41.2036 12.8266 39.7199 14.3203C38.2363 15.814 36.3567 16.6517 34.0811 16.8333M48.4473 36.0938C48.6518 35.674 48.8152 35.2305 48.9375 34.7632C49.0598 34.2958 49.12 33.8241 49.118 33.3479V31.6179C49.118 30.3217 48.8523 29.0872 48.321 27.9145C47.7897 26.7417 46.9496 25.7753 45.8008 25.0152C47.8559 25.5707 49.7325 26.367 51.4306 27.4039C53.1288 28.4391 53.9779 29.8438 53.9779 31.6179V33.3479C53.9779 34.1239 53.6771 34.7764 53.0757 35.3055C52.4782 35.831 51.7374 36.0938 50.8532 36.0938H48.4473ZM53.9779 14.6271H49.4668C49.0398 14.6271 48.6819 14.5001 48.3932 14.2462C48.1045 13.9922 47.9611 13.6775 47.9631 13.3018C47.9651 12.9262 48.1085 12.6123 48.3932 12.3601C48.6779 12.1079 49.0358 11.9818 49.4668 11.9818H53.9779V8.01386C53.9779 7.63823 54.1222 7.32432 54.4109 7.07214C54.6976 6.81819 55.0545 6.69121 55.4816 6.69121C55.9086 6.69121 56.2655 6.81819 56.5522 7.07214C56.8389 7.32609 56.9832 7.64 56.9853 8.01386V11.9818H61.4963C61.9214 11.9818 62.2782 12.1088 62.5669 12.3627C62.8556 12.6167 63 12.9315 63 13.3071C63 13.6827 62.8556 13.9967 62.5669 14.2488C62.2782 14.501 61.9214 14.6271 61.4963 14.6271H56.9853V18.5951C56.9853 18.9707 56.8409 19.2846 56.5522 19.5368C56.2635 19.789 55.9056 19.916 55.4786 19.9177C55.0515 19.9195 54.6946 19.7925 54.4079 19.5368C54.1212 19.2811 53.9779 18.9672 53.9779 18.5951V14.6271ZM22.0516 16.9682C19.5715 16.9682 17.4473 16.1905 15.679 14.6351C13.9107 13.0796 13.0285 11.2112 13.0325 9.02966C13.0365 6.84817 13.9187 4.98058 15.679 3.42691C17.4393 1.87324 19.5645 1.09552 22.0546 1.09375C24.5447 1.09199 26.6679 1.86971 28.4242 3.42691C30.1805 4.98411 31.0637 6.8517 31.0737 9.02966C31.0838 11.2076 30.2006 13.077 28.4242 14.6377C26.6479 16.1984 24.5237 16.9744 22.0516 16.9656M1 33.3479V31.7396C1 30.648 1.36088 29.626 2.08265 28.6737C2.80643 27.7231 3.77981 26.9851 5.00281 26.4596C7.83977 25.2621 10.6797 24.3645 13.5227 23.7666C16.3637 23.167 19.2066 22.8672 22.0516 22.8672C24.8966 22.8672 27.7406 23.167 30.5835 23.7666C33.4265 24.3662 36.2655 25.2639 39.1004 26.4596C40.3234 26.9851 41.2958 27.7231 42.0176 28.6737C42.7413 29.626 43.1032 30.6488 43.1032 31.7422V33.3479C43.1032 34.1239 42.8035 34.7764 42.204 35.3055C41.6045 35.831 40.8627 36.0938 39.9786 36.0938H4.12767C3.24551 36.0938 2.50369 35.8301 1.90221 35.3028C1.30274 34.7755 1 34.1239 1 33.3479ZM22.0546 14.3229C23.7087 14.3229 25.1251 13.8044 26.304 12.7675C27.4829 11.7305 28.0714 10.4855 28.0694 9.03231C28.0674 7.57915 27.4789 6.33322 26.304 5.29449C25.1292 4.25577 23.7127 3.73817 22.0546 3.7417C20.3966 3.74523 18.9811 4.26283 17.8082 5.29449C16.6353 6.32616 16.0459 7.5721 16.0399 9.03231C16.0339 10.4925 16.6233 11.7376 17.8082 12.7675C18.9931 13.7974 20.4086 14.3159 22.0546 14.3229ZM4.01038 33.4484H40.0989V31.7396C40.0989 31.1541 39.8843 30.603 39.4553 30.0863C39.0262 29.5713 38.4318 29.1357 37.6719 28.7795C35.1958 27.7249 32.6436 26.9172 30.0151 26.3564C27.3867 25.7956 24.7332 25.5152 22.0546 25.5152C19.3761 25.5152 16.7235 25.7956 14.0971 26.3564C11.4667 26.9172 8.9144 27.7249 6.44034 28.7795C5.68047 29.1357 5.08602 29.5713 4.65697 30.0863C4.22791 30.6012 4.01239 31.1523 4.01038 31.7396V33.4484Z" fill="#00A73E"/>
<path d="M34.0811 1.22602L34.1614 0.229251L31.3171 5.126e-06L33.3961 1.95459L34.0811 1.22602ZM39.7199 3.73906L40.4294 3.03435L40.429 3.03393L39.7199 3.73906ZM48.4473 36.0938L47.5483 35.6557L46.8477 37.0938H48.4473V36.0938ZM49.118 33.3479H48.118L48.118 33.3521L49.118 33.3479ZM45.8008 25.0152L46.0618 24.0499L45.2491 25.8492L45.8008 25.0152ZM51.4306 27.4039L50.9095 28.2574L50.9101 28.2578L51.4306 27.4039ZM53.0757 35.3055L53.7361 36.0563L53.0757 35.3055ZM53.9779 14.6271H54.9779V13.6271H53.9779V14.6271ZM53.9779 11.9818V12.9818H54.9779V11.9818H53.9779ZM54.4109 7.07214L55.0688 7.82529L55.074 7.82071L54.4109 7.07214ZM56.9853 8.01386H57.9853L57.9852 8.0085L56.9853 8.01386ZM56.9853 11.9818H55.9853V12.9818H56.9853V11.9818ZM56.9853 14.6271V13.6271H55.9853V14.6271H56.9853ZM2.08265 28.6737L1.28704 28.0679L1.28569 28.0696L2.08265 28.6737ZM5.00281 26.4596L4.61394 25.5382L4.60801 25.5408L5.00281 26.4596ZM13.5227 23.7666L13.7285 24.7452L13.7292 24.7451L13.5227 23.7666ZM39.1004 26.4596L39.4952 25.5408L39.489 25.5382L39.1004 26.4596ZM42.0176 28.6737L41.2211 29.2784L41.2214 29.2788L42.0176 28.6737ZM42.204 35.3055L42.8632 36.0574L42.8657 36.0552L42.204 35.3055ZM1.90221 35.3028L1.24175 36.0537L1.24299 36.0548L1.90221 35.3028ZM22.0546 14.3229L22.0503 15.3229H22.0546V14.3229ZM4.01038 33.4484H3.01038V34.4484H4.01038V33.4484ZM40.0989 33.4484V34.4484H41.0989V33.4484H40.0989ZM39.4553 30.0863L40.2246 29.4474L40.2236 29.4461L39.4553 30.0863ZM37.6719 28.7795L38.0964 27.8741L38.0802 27.8665L38.0638 27.8595L37.6719 28.7795ZM14.0971 26.3564L14.3056 27.3344L14.3059 27.3343L14.0971 26.3564ZM6.44034 28.7795L6.04822 27.8596L6.03191 27.8665L6.01586 27.8741L6.44034 28.7795ZM4.01038 31.7396L3.01038 31.7362V31.7396H4.01038ZM34.0811 16.8359L34.7655 17.5651C35.9873 16.4183 36.8606 15.0745 37.3648 13.5399L36.4148 13.2278L35.4648 12.9156C35.0709 14.1145 34.3883 15.1761 33.3967 16.1068L34.0811 16.8359ZM36.4148 13.2278L37.3648 13.5399C37.8469 12.0729 38.0885 10.5682 38.0885 9.02966H37.0885H36.0885C36.0885 10.3551 35.881 11.6491 35.4648 12.9156L36.4148 13.2278ZM37.0885 9.02966H38.0885C38.0885 7.49112 37.8469 5.98715 37.3647 4.52168L36.4148 4.83421L35.4649 5.14675C35.881 6.41122 36.0885 7.70422 36.0885 9.02966H37.0885ZM36.4148 4.83421L37.3647 4.52168C36.8604 2.98897 35.9873 1.64557 34.7661 0.497449L34.0811 1.22602L33.3961 1.95459C34.3884 2.88744 35.071 3.9495 35.4649 5.14675L36.4148 4.83421ZM34.0811 1.22602L34.0008 2.22279C36.0605 2.3888 37.7101 3.13616 39.0108 4.44418L39.7199 3.73906L40.429 3.03393C38.7625 1.35805 36.6529 0.430057 34.1614 0.229251L34.0811 1.22602ZM39.7199 3.73906L39.0104 4.44376C40.3153 5.75754 40.9454 7.2706 40.9454 9.02966H41.9454H42.9454C42.9454 6.72201 42.0918 4.708 40.4294 3.03435L39.7199 3.73906ZM41.9454 9.02966H40.9454C40.9454 10.7887 40.3153 12.3018 39.0104 13.6156L39.7199 14.3203L40.4294 15.025C42.0918 13.3513 42.9454 11.3373 42.9454 9.02966H41.9454ZM39.7199 14.3203L39.0104 13.6156C37.7098 14.925 36.0606 15.6721 34.0015 15.8365L34.0811 16.8333L34.1607 17.8301C36.6527 17.6312 38.7627 16.703 40.4294 15.025L39.7199 14.3203ZM48.4473 36.0938L49.3463 36.5318C49.5806 36.0508 49.7665 35.5452 49.9049 35.0163L48.9375 34.7632L47.9701 34.51C47.8639 34.9158 47.723 35.2972 47.5483 35.6557L48.4473 36.0938ZM48.9375 34.7632L49.9049 35.0163C50.0489 34.4662 50.1203 33.908 50.118 33.3437L49.118 33.3479L48.118 33.3521C48.1196 33.7402 48.0707 34.1254 47.9701 34.51L48.9375 34.7632ZM49.118 33.3479H50.118V31.6179H49.118H48.118V33.3479H49.118ZM49.118 31.6179H50.118C50.118 30.1804 49.8223 28.8051 49.2319 27.5018L48.321 27.9145L47.4101 28.3271C47.8823 29.3693 48.118 30.463 48.118 31.6179H49.118ZM48.321 27.9145L49.2319 27.5018C48.6174 26.1455 47.6469 25.0376 46.3526 24.1812L45.8008 25.0152L45.2491 25.8492C46.2523 26.513 46.962 27.3379 47.4101 28.3271L48.321 27.9145ZM45.8008 25.0152L45.5399 25.9806C47.5097 26.5131 49.2978 27.2732 50.9095 28.2574L51.4306 27.4039L51.9518 26.5505C50.1672 25.4607 48.202 24.6284 46.0618 24.0499L45.8008 25.0152ZM51.4306 27.4039L50.9101 28.2578C52.3535 29.1377 52.9779 30.2401 52.9779 31.6179H53.9779H54.9779C54.9779 29.4475 53.9041 27.7406 51.9511 26.5501L51.4306 27.4039ZM53.9779 31.6179H52.9779V33.3479H53.9779H54.9779V31.6179H53.9779ZM53.9779 33.3479H52.9779C52.9779 33.826 52.8088 34.2084 52.4152 34.5546L53.0757 35.3055L53.7361 36.0563C54.5455 35.3444 54.9779 34.4218 54.9779 33.3479H53.9779ZM53.0757 35.3055L52.4152 34.5546C52.021 34.9014 51.5233 35.0938 50.8532 35.0938V36.0938V37.0938C51.9515 37.0938 52.9354 36.7606 53.7361 36.0563L53.0757 35.3055ZM50.8532 36.0938V35.0938H48.4473V36.0938V37.0938H50.8532V36.0938ZM53.9779 14.6271V13.6271H49.4668V14.6271V15.6271H53.9779V14.6271ZM49.4668 14.6271V13.6271C49.254 13.6271 49.1392 13.5706 49.0536 13.4953L48.3932 14.2462L47.7327 14.9971C48.2246 15.4297 48.8256 15.6271 49.4668 15.6271V14.6271ZM48.3932 14.2462L49.0536 13.4953C48.9763 13.4273 48.9627 13.3857 48.9631 13.3072L47.9631 13.3018L46.9632 13.2965C46.9596 13.9692 47.2327 14.5572 47.7327 14.9971L48.3932 14.2462ZM47.9631 13.3018L48.9631 13.3072C48.9636 13.2199 48.9814 13.175 49.0563 13.1087L48.3932 12.3601L47.7301 11.6115C47.2356 12.0496 46.9667 12.6324 46.9632 13.2965L47.9631 13.3018ZM48.3932 12.3601L49.0563 13.1087C49.1336 13.0402 49.2452 12.9818 49.4668 12.9818V11.9818V10.9818C48.8263 10.9818 48.2222 11.1756 47.7301 11.6115L48.3932 12.3601ZM49.4668 11.9818V12.9818H53.9779V11.9818V10.9818H49.4668V11.9818ZM53.9779 11.9818H54.9779V8.01386H53.9779H52.9779V11.9818H53.9779ZM53.9779 8.01386H54.9779C54.9779 7.93361 54.9924 7.89202 55.0688 7.82527L54.4109 7.07214L53.7531 6.319C53.2521 6.75662 52.9779 7.34286 52.9779 8.01386H53.9779ZM54.4109 7.07214L55.074 7.82071C55.1564 7.74771 55.2686 7.69121 55.4816 7.69121V6.69121V5.69121C54.8404 5.69121 54.2389 5.88866 53.7479 6.32357L54.4109 7.07214ZM55.4816 6.69121V7.69121C55.6945 7.69121 55.8067 7.74771 55.8891 7.82071L56.5522 7.07214L57.2152 6.32357C56.7243 5.88867 56.1227 5.69121 55.4816 5.69121V6.69121ZM56.5522 7.07214L55.8891 7.82071C55.9689 7.89135 55.9848 7.93756 55.9853 8.01923L56.9853 8.01386L57.9852 8.0085C57.9817 7.34243 57.7089 6.76082 57.2152 6.32357L56.5522 7.07214ZM56.9853 8.01386H55.9853V11.9818H56.9853H57.9853V8.01386H56.9853ZM56.9853 11.9818V12.9818H61.4963V11.9818V10.9818H56.9853V11.9818ZM61.4963 11.9818V12.9818C61.7058 12.9818 61.82 13.0376 61.9065 13.1136L62.5669 12.3627L63.2274 11.6119C62.7364 11.18 62.1369 10.9818 61.4963 10.9818V11.9818ZM62.5669 12.3627L61.9065 13.1136C61.9852 13.1828 62 13.2266 62 13.3071H63H64C64 12.6363 63.7261 12.0506 63.2274 11.6119L62.5669 12.3627ZM63 13.3071H62C62 13.3874 61.9855 13.4289 61.9091 13.4957L62.5669 14.2488L63.2248 15.002C63.7258 14.5644 64 13.9781 64 13.3071H63ZM62.5669 14.2488L61.9091 13.4957C61.8228 13.5711 61.7077 13.6271 61.4963 13.6271V14.6271V15.6271C62.135 15.6271 62.7337 15.431 63.2248 15.002L62.5669 14.2488ZM61.4963 14.6271V13.6271H56.9853V14.6271V15.6271H61.4963V14.6271ZM56.9853 14.6271H55.9853V18.5951H56.9853H57.9853V14.6271H56.9853ZM56.9853 18.5951H55.9853C55.9853 18.6753 55.9708 18.7169 55.8943 18.7837L56.5522 19.5368L57.2101 20.2899C57.711 19.8523 57.9853 19.2661 57.9853 18.5951H56.9853ZM56.5522 19.5368L55.8943 18.7837C55.8077 18.8593 55.6904 18.9168 55.4744 18.9177L55.4786 19.9177L55.4827 20.9177C56.1209 20.9151 56.7192 20.7187 57.2101 20.2899L56.5522 19.5368ZM55.4786 19.9177L55.4744 18.9177C55.2646 18.9186 55.155 18.8631 55.0736 18.7905L54.4079 19.5368L53.7423 20.2831C54.2343 20.7219 54.8384 20.9204 55.4827 20.9177L55.4786 19.9177ZM54.4079 19.5368L55.0736 18.7905C54.9917 18.7175 54.9779 18.6718 54.9779 18.5951H53.9779H52.9779C52.9779 19.2626 53.2507 19.8446 53.7423 20.2831L54.4079 19.5368ZM53.9779 18.5951H54.9779V14.6271H53.9779H52.9779V18.5951H53.9779ZM22.0516 16.9682V15.9682C19.8006 15.9682 17.9149 15.27 16.3394 13.8842L15.679 14.6351L15.0185 15.3859C16.9797 17.111 19.3425 17.9682 22.0516 17.9682V16.9682ZM15.679 14.6351L16.3394 13.8842C14.768 12.5019 14.0291 10.9 14.0325 9.0315L13.0325 9.02966L12.0325 9.02782C12.0279 11.5223 13.0533 13.6573 15.0185 15.3859L15.679 14.6351ZM13.0325 9.02966L14.0325 9.0315C14.0359 7.15996 14.7765 5.55721 16.3407 4.17665L15.679 3.42691L15.0173 2.67717C13.0608 4.40396 12.0371 6.53638 12.0325 9.02782L13.0325 9.02966ZM15.679 3.42691L16.3407 4.17665C17.9068 2.7944 19.7926 2.09536 22.0553 2.09375L22.0546 1.09375L22.0539 0.0937532C19.3364 0.0956779 16.9718 0.952071 15.0173 2.67717L15.679 3.42691ZM22.0546 1.09375L22.0553 2.09375C24.3169 2.09215 26.1994 2.79077 27.7608 4.17516L28.4242 3.42691L29.0877 2.67866C27.1364 0.948648 24.7725 0.0918279 22.0539 0.0937532L22.0546 1.09375ZM28.4242 3.42691L27.7608 4.17516C29.3229 5.56013 30.0651 7.16473 30.0737 9.03426L31.0737 9.02966L32.0737 9.02506C32.0623 6.53866 31.0382 4.40809 29.0877 2.67866L28.4242 3.42691ZM31.0737 9.02966L30.0737 9.03426C30.0823 10.8961 29.3443 12.4982 27.7642 13.8865L28.4242 14.6377L29.0843 15.3889C31.0569 13.6557 32.0852 11.5191 32.0737 9.02506L31.0737 9.02966ZM28.4242 14.6377L27.7642 13.8865C26.1802 15.2782 24.2952 15.9736 22.0552 15.9656L22.0516 16.9656L22.048 17.9656C24.7521 17.9752 27.1156 17.1186 29.0843 15.3889L28.4242 14.6377ZM1 33.3479H2V31.7396H1H0V33.3479H1ZM1 31.7396H2C2 30.8869 2.27639 30.0736 2.87962 29.2777L2.08265 28.6737L1.28569 28.0696C0.445378 29.1784 0 30.409 0 31.7396H1ZM2.08265 28.6737L2.87827 29.2795C3.4861 28.4812 4.31449 27.8438 5.39762 27.3783L5.00281 26.4596L4.60801 25.5408C3.24514 26.1264 2.12675 26.9651 1.28704 28.0679L2.08265 28.6737ZM5.00281 26.4596L5.39168 27.3809C8.1731 26.2069 10.9519 25.3291 13.7285 24.7452L13.5227 23.7666L13.3169 22.788C10.4076 23.3998 7.50644 24.3174 4.61395 25.5383L5.00281 26.4596ZM13.5227 23.7666L13.7292 24.7451C16.5037 24.1595 19.2775 23.8672 22.0516 23.8672V22.8672V21.8672C19.1358 21.8672 16.2237 22.1746 13.3162 22.7882L13.5227 23.7666ZM22.0516 22.8672V23.8672C24.8258 23.8672 27.6006 24.1595 30.3772 24.7451L30.5835 23.7666L30.7899 22.7882C27.8805 22.1746 24.9674 21.8672 22.0516 21.8672V22.8672ZM30.5835 23.7666L30.3772 24.7451C33.1542 25.3308 35.9322 26.2086 38.7118 27.381L39.1004 26.4596L39.489 25.5382C36.5987 24.3191 33.6988 23.4017 30.7899 22.7882L30.5835 23.7666ZM39.1004 26.4596L38.7056 27.3783C39.7885 27.8437 40.6155 28.4808 41.2211 29.2784L42.0176 28.6737L42.814 28.0689C41.9761 26.9654 40.8583 26.1265 39.4952 25.5408L39.1004 26.4596ZM42.0176 28.6737L41.2214 29.2788C41.8261 30.0744 42.1032 30.8882 42.1032 31.7422H43.1032H44.1032C44.1032 30.4095 43.6566 29.1776 42.8137 28.0686L42.0176 28.6737ZM43.1032 31.7422H42.1032V33.3479H43.1032H44.1032V31.7422H43.1032ZM43.1032 33.3479H42.1032C42.1032 33.8272 41.9342 34.2099 41.5423 34.5557L42.204 35.3055L42.8657 36.0552C43.6728 35.3429 44.1032 34.4206 44.1032 33.3479H43.1032ZM42.204 35.3055L41.5448 34.5535C41.148 34.9013 40.6486 35.0938 39.9786 35.0938V36.0938V37.0938C41.0768 37.0938 42.0611 36.7606 42.8632 36.0574L42.204 35.3055ZM39.9786 36.0938V35.0938H4.12767V36.0938V37.0938H39.9786V36.0938ZM4.12767 36.0938V35.0938C3.4612 35.0938 2.96129 34.9014 2.56143 34.5509L1.90221 35.3028L1.24299 36.0548C2.04609 36.7588 3.02981 37.0938 4.12767 37.0938V36.0938ZM1.90221 35.3028L2.56267 34.5519C2.16979 34.2064 2 33.8243 2 33.3479H1H0C0 34.4234 0.435694 35.3447 1.24175 36.0537L1.90221 35.3028ZM22.0546 14.3229V15.3229C23.9376 15.3229 25.5927 14.725 26.9645 13.5183L26.304 12.7675L25.6436 12.0166C24.6576 12.8839 23.4797 13.3229 22.0546 13.3229V14.3229ZM26.304 12.7675L26.9645 13.5183C28.34 12.3085 29.0718 10.7972 29.0694 9.03093L28.0694 9.03231L27.0694 9.03369C27.0709 10.1738 26.6259 11.1526 25.6436 12.0166L26.304 12.7675ZM28.0694 9.03231L29.0694 9.03093C29.0669 7.26712 28.3365 5.75662 26.9664 4.54531L26.304 5.29449L25.6417 6.04368C26.6213 6.90981 27.0678 7.89119 27.0694 9.03369L28.0694 9.03231ZM26.304 5.29449L26.9664 4.54531C25.597 3.33464 23.94 2.73769 22.0525 2.7417L22.0546 3.7417L22.0567 4.7417C23.4854 4.73866 24.6613 5.17691 25.6417 6.04368L26.304 5.29449ZM22.0546 3.7417L22.0525 2.7417C20.1682 2.74571 18.5144 3.34149 17.1477 4.54363L17.8082 5.29449L18.4687 6.04535C19.4477 5.18416 20.6249 4.74475 22.0567 4.7417L22.0546 3.7417ZM17.8082 5.29449L17.1477 4.54363C15.777 5.74933 15.0472 7.26019 15.0399 9.02819L16.0399 9.03231L17.0399 9.03643C17.0446 7.88401 17.4936 6.90299 18.4687 6.04535L17.8082 5.29449ZM16.0399 9.03231L15.0399 9.02819C15.0326 10.8032 15.7664 12.3177 17.1522 13.5222L17.8082 12.7675L18.4642 12.0127C17.4802 11.1574 17.0351 10.1818 17.0399 9.03643L16.0399 9.03231ZM17.8082 12.7675L17.1522 13.5222C18.5273 14.7174 20.1773 15.3149 22.0503 15.3229L22.0546 14.3229L22.0589 13.3229C20.6398 13.3168 19.459 12.8773 18.4642 12.0127L17.8082 12.7675ZM4.01038 33.4484V34.4484H40.0989V33.4484V32.4484H4.01038V33.4484ZM40.0989 33.4484H41.0989V31.7396H40.0989H39.0989V33.4484H40.0989ZM40.0989 31.7396H41.0989C41.0989 30.8869 40.7796 30.1158 40.2246 29.4474L39.4553 30.0863L38.6859 30.7251C38.9891 31.0902 39.0989 31.4213 39.0989 31.7396H40.0989ZM39.4553 30.0863L40.2236 29.4461C39.6802 28.794 38.9564 28.2772 38.0964 27.8741L37.6719 28.7795L37.2474 29.6849C37.9071 29.9942 38.3723 30.3486 38.687 30.7264L39.4553 30.0863ZM37.6719 28.7795L38.0638 27.8595C35.5287 26.7797 32.9151 25.9526 30.2238 25.3784L30.0151 26.3564L29.8065 27.3344C32.372 27.8818 34.863 28.67 37.28 29.6995L37.6719 28.7795ZM30.0151 26.3564L30.2238 25.3784C27.527 24.803 24.8036 24.5152 22.0546 24.5152V25.5152V26.5152C24.6628 26.5152 27.2464 26.7882 29.8065 27.3344L30.0151 26.3564ZM22.0546 25.5152V24.5152C19.3057 24.5152 16.5832 24.803 13.8883 25.3784L14.0971 26.3564L14.3059 27.3343C16.8639 26.7882 19.4464 26.5152 22.0546 26.5152V25.5152ZM14.0971 26.3564L13.8886 25.3784C11.1952 25.9526 8.58147 26.7798 6.04822 27.8596L6.44034 28.7795L6.83246 29.6994C9.24733 28.67 11.7381 27.8818 14.3056 27.3344L14.0971 26.3564ZM6.44034 28.7795L6.01586 27.8741C5.15585 28.2772 4.43207 28.794 3.88869 29.4461L4.65697 30.0863L5.42524 30.7264C5.73997 30.3486 6.2051 29.9942 6.86482 29.6849L6.44034 28.7795ZM4.65697 30.0863L3.88869 29.4461C3.33293 30.1132 3.0133 30.8836 3.01039 31.7362L4.01038 31.7396L5.01037 31.743C5.01147 31.421 5.1229 31.0893 5.42524 30.7264L4.65697 30.0863ZM4.01038 31.7396H3.01038V33.4484H4.01038H5.01038V31.7396H4.01038Z" fill="#00A73E" mask="url(#path-1-outside-1_403_209)"/>
</svg>
