<svg width="37" height="32" viewBox="0 0 37 32" fill="none" xmlns="http://www.w3.org/2000/svg">
<path fill-rule="evenodd" clip-rule="evenodd" d="M20.1667 18.3333C22.1116 18.3333 23.9769 19.1059 25.3521 20.4812C26.7274 21.8565 27.5 23.7217 27.5 25.6667V29.3333C27.5 29.8196 27.3068 30.2859 26.963 30.6297C26.6192 30.9735 26.1529 31.1667 25.6667 31.1667C25.1804 31.1667 24.7141 30.9735 24.3703 30.6297C24.0265 30.2859 23.8333 29.8196 23.8333 29.3333V25.6667C23.8333 24.6942 23.447 23.7616 22.7594 23.0739C22.0718 22.3863 21.1391 22 20.1667 22H7.33333C6.36087 22 5.42824 22.3863 4.74061 23.0739C4.05298 23.7616 3.66667 24.6942 3.66667 25.6667V29.3333C3.66667 29.8196 3.47351 30.2859 3.1297 30.6297C2.78588 30.9735 2.31956 31.1667 1.83333 31.1667C1.3471 31.1667 0.880787 30.9735 0.536971 30.6297C0.193154 30.2859 0 29.8196 0 29.3333V25.6667C0 23.7217 0.772617 21.8565 2.14788 20.4812C3.52315 19.1059 5.38841 18.3333 7.33333 18.3333H20.1667ZM31.1667 18.3333C32.6254 18.3333 34.0243 18.9128 35.0558 19.9442C36.0872 20.9757 36.6667 22.3746 36.6667 23.8333V27.5C36.6667 27.9862 36.4735 28.4525 36.1297 28.7964C35.7859 29.1402 35.3196 29.3333 34.8333 29.3333C34.3471 29.3333 33.8808 29.1402 33.537 28.7964C33.1932 28.4525 33 27.9862 33 27.5V23.8333C33 23.3471 32.8068 22.8808 32.463 22.537C32.1192 22.1932 31.6529 22 31.1667 22H28.5707C27.9365 20.5474 26.9366 19.2841 25.6685 18.3333H31.1667ZM13.75 0C15.938 0 18.0365 0.869194 19.5836 2.41637C21.1308 3.96354 22 6.06196 22 8.25C22 10.438 21.1308 12.5365 19.5836 14.0836C18.0365 15.6308 15.938 16.5 13.75 16.5C11.562 16.5 9.46354 15.6308 7.91637 14.0836C6.36919 12.5365 5.5 10.438 5.5 8.25C5.5 6.06196 6.36919 3.96354 7.91637 2.41637C9.46354 0.869194 11.562 0 13.75 0ZM29.3333 5.5C30.792 5.5 32.191 6.07946 33.2224 7.11091C34.2539 8.14236 34.8333 9.54131 34.8333 11C34.8333 12.4587 34.2539 13.8576 33.2224 14.8891C32.191 15.9205 30.792 16.5 29.3333 16.5C27.8746 16.5 26.4757 15.9205 25.4442 14.8891C24.4128 13.8576 23.8333 12.4587 23.8333 11C23.8333 9.54131 24.4128 8.14236 25.4442 7.11091C26.4757 6.07946 27.8746 5.5 29.3333 5.5ZM13.75 3.66667C12.5344 3.66667 11.3686 4.14955 10.5091 5.00909C9.64955 5.86864 9.16667 7.03442 9.16667 8.25C9.16667 9.46558 9.64955 10.6314 10.5091 11.4909C11.3686 12.3504 12.5344 12.8333 13.75 12.8333C14.9656 12.8333 16.1314 12.3504 16.9909 11.4909C17.8504 10.6314 18.3333 9.46558 18.3333 8.25C18.3333 7.03442 17.8504 5.86864 16.9909 5.00909C16.1314 4.14955 14.9656 3.66667 13.75 3.66667ZM29.3333 9.16667C28.8471 9.16667 28.3808 9.35982 28.037 9.70364C27.6932 10.0475 27.5 10.5138 27.5 11C27.5 11.4862 27.6932 11.9525 28.037 12.2964C28.3808 12.6402 28.8471 12.8333 29.3333 12.8333C29.8196 12.8333 30.2859 12.6402 30.6297 12.2964C30.9735 11.9525 31.1667 11.4862 31.1667 11C31.1667 10.5138 30.9735 10.0475 30.6297 9.70364C30.2859 9.35982 29.8196 9.16667 29.3333 9.16667Z" fill="white"/>
</svg>
