<svg width="32" height="46" viewBox="0 0 32 46" fill="none" xmlns="http://www.w3.org/2000/svg">
<path d="M27.1304 0H4.86957C2.19826 0 0 2.07657 0 4.6V41.4C0 43.9234 2.19826 46 4.86957 46H27.1304C29.8017 46 32 43.9234 32 41.4V4.6C32 2.07657 29.8017 0 27.1304 0ZM27.8261 41.4C27.8261 41.768 27.52 42.0571 27.1304 42.0571H4.86957C4.48 42.0571 4.17391 41.768 4.17391 41.4V4.6C4.17391 4.232 4.48 3.94286 4.86957 3.94286H27.1304C27.52 3.94286 27.8261 4.232 27.8261 4.6V41.4ZM18.7826 33.5143C18.7826 34.96 17.5304 36.1429 16 36.1429C14.4696 36.1429 13.2174 34.96 13.2174 33.5143C13.2174 32.0686 14.4696 30.8857 16 30.8857C17.5304 30.8857 18.7826 32.0686 18.7826 33.5143Z" fill="#00A73E"/>
</svg>
