<svg width="38" height="43" viewBox="0 0 38 43" fill="none" xmlns="http://www.w3.org/2000/svg">
<path d="M18.0859 2C22.4592 2 26.5796 4.02552 29.5645 7.50195C32.5412 10.969 34.1729 15.6148 34.1729 20.4062C34.1729 24.6066 32.9182 28.6942 30.6035 31.9746L35.5176 37.6973C36.237 38.5353 36.1407 39.7981 35.3027 40.5176C34.4647 41.237 33.2019 41.1407 32.4824 40.3027L27.9141 34.9814C25.143 37.426 21.7017 38.8125 18.0859 38.8125C13.7129 38.8124 9.59322 36.7868 6.6084 33.3105C3.6316 29.8435 2 25.1977 2 20.4062C2 15.6148 3.6316 10.969 6.6084 7.50195C9.59322 4.0257 13.7129 2.0001 18.0859 2Z" stroke="#00A73E" stroke-width="4" stroke-linecap="round" stroke-linejoin="round"/>
</svg>
