<svg width="43" height="43" viewBox="0 0 43 43" fill="none" xmlns="http://www.w3.org/2000/svg">
<path d="M16.2002 26.2139V38.6426H12.3428V32.7988L3.78809 41.3535L3.43359 41.707L0.707031 38.9805L1.06055 38.626L9.61523 30.0713H3.77148V26.2139H16.2002ZM41.9141 37.6426V41.5H20.9141V37.6426H41.9141ZM41.9141 3.35742V14.3574H38.0566V9.94141L27.0635 20.9346C26.7019 21.296 26.2114 21.4999 25.7002 21.5C25.1888 21.5 24.6976 21.2961 24.3359 20.9346L18.5566 15.1553L12.3594 21.3535L12.0059 21.707L11.6523 21.3535L9.63184 19.334L9.27832 18.9805L9.63184 18.626L17.1934 11.0654C17.555 10.7039 18.0454 10.5001 18.5566 10.5C19.0041 10.5 19.4361 10.6554 19.7793 10.9365L19.9209 11.0654L25.6992 16.8438L35.3301 7.21387H30.9141V3.35742H41.9141ZM4.77148 0.5V21.5H0.914062V0.5H4.77148Z" fill="#00A73E" stroke="#00A73E"/>
</svg>
