<svg width="33" height="22" viewBox="0 0 33 22" fill="none" xmlns="http://www.w3.org/2000/svg">
<path fill-rule="evenodd" clip-rule="evenodd" d="M18.5472 2.83046C14.5094 1.07333 10.8624 0.465045 7.37434 0.870625C-2.17835 2.03509 -0.560575 18.0668 6.89985 15.6719L6.85116 20.1814C8.67413 20.8721 10.7743 20.9647 12.4349 20.2867L12.3743 18.1C12.8423 17.8174 17.0581 19.4684 18.5365 16.7006C15.9881 16.0783 14.2296 14.9036 13.8322 12.7769C14.7787 12.8434 16.2488 13.7258 18.602 13.5271C19.3511 13.5019 19.6923 13.2049 19.5611 12.5933L17.6904 10.9992C19.9486 11.1849 21.0139 10.6948 20.4627 9.22019C19.579 7.90837 18.4994 6.77109 17.1106 6.50969C16.8351 5.91112 16.6998 5.33629 17.1397 4.85883C18.2113 4.70983 19.797 3.56678 18.5472 2.83046H18.5472Z" stroke="#333333" stroke-width="1.5" stroke-miterlimit="22.9256" stroke-linecap="round" stroke-linejoin="round"/>
<path d="M25.5664 14.9297H32.185" stroke="#333333" stroke-width="1.5" stroke-linecap="round"/>
<path d="M24.3555 12.4297L30.0874 9.09635" stroke="#333333" stroke-width="1.5" stroke-linecap="round"/>
<path d="M30.082 20.7578L24.3501 17.4245" stroke="#333333" stroke-width="1.5" stroke-linecap="round"/>
</svg>
