<svg width="50" height="50" viewBox="0 0 50 50" fill="none" xmlns="http://www.w3.org/2000/svg">
<path d="M37.3854 29.7438C36.6376 27.033 35.0211 24.6424 32.7838 22.9388C30.5466 21.2351 27.8122 20.3125 25.0001 20.3125C22.1881 20.3125 19.4537 21.2351 17.2164 22.9388C14.9792 24.6424 13.3627 27.033 12.6149 29.7438L10.8328 36.2038C10.5129 37.3637 10.4651 38.5818 10.6933 39.7631C10.9215 40.9445 11.4195 42.0572 12.1485 43.0144C12.8774 43.9717 13.8176 44.7476 14.8957 45.2818C15.9738 45.8159 17.1608 46.0938 18.364 46.0938H31.6362C32.8394 46.0938 34.0264 45.8159 35.1045 45.2818C36.1826 44.7476 37.1228 43.9717 37.8518 43.0144C38.5807 42.0572 39.0787 40.9445 39.3069 39.7631C39.5351 38.5818 39.4874 37.3637 39.1674 36.2038L37.3854 29.7438ZM35.3656 41.1208C34.9302 41.6972 34.3665 42.1644 33.7191 42.4851C33.0718 42.8059 32.3587 42.9715 31.6362 42.9688H18.364C17.6421 42.9688 16.9299 42.8021 16.283 42.4816C15.6361 42.1611 15.072 41.6955 14.6346 41.1212C14.1972 40.5468 13.8984 39.8792 13.7615 39.1704C13.6246 38.4616 13.6532 37.7307 13.8452 37.0348L15.6273 30.5749C16.1932 28.5234 17.4165 26.7143 19.1096 25.425C20.8027 24.1357 22.872 23.4376 25.0001 23.4376C27.1282 23.4376 29.1975 24.1357 30.8906 25.425C32.5837 26.7143 33.807 28.5234 34.373 30.5749L36.155 37.0348C36.3497 37.7304 36.3798 38.4619 36.2428 39.1712C36.1057 39.8804 35.8054 40.5481 35.3656 41.1212V41.1208ZM14.2677 22.4913C14.5396 20.7921 14.179 18.973 13.2521 17.368C12.3251 15.7629 10.9298 14.5411 9.32267 13.9269C7.60158 13.2696 5.84611 13.3743 4.37794 14.2216C1.45929 15.9067 0.691225 20.0599 2.66613 23.4799C3.59279 25.0849 4.9882 26.307 6.59533 26.9209C7.30722 27.1985 8.06397 27.3431 8.82804 27.3477C9.77994 27.3512 10.7157 27.1022 11.5401 26.6262C13.0073 25.7788 13.9761 24.3103 14.2677 22.4913ZM11.1818 21.9973C11.0421 22.8693 10.6144 23.552 9.97736 23.9198C9.34035 24.2876 8.53527 24.3165 7.71007 24.0015C6.7713 23.6431 5.94103 22.9028 5.37208 21.9174C4.27833 20.0228 4.53829 17.7377 5.94044 16.9279C6.29295 16.728 6.69213 16.6249 7.09738 16.6293C7.47752 16.6333 7.85373 16.7067 8.20753 16.8458C9.1463 17.2045 9.97658 17.9446 10.5455 18.9301C11.1145 19.9155 11.3403 21.0051 11.1818 21.9973ZM14.6062 16.0174C15.7157 16.9044 16.9828 17.3663 18.2642 17.3662C18.648 17.3661 19.0307 17.3248 19.4057 17.2431C22.6989 16.5271 24.6957 12.8053 23.8568 8.94637C23.4633 7.13524 22.5065 5.54628 21.1627 4.47196C19.7237 3.32157 18.0193 2.88612 16.3632 3.24628C13.07 3.9621 11.0733 7.68397 11.912 11.5429C12.3057 13.3541 13.2625 14.9431 14.6062 16.0174ZM17.0269 6.29999C17.1787 6.26728 17.3336 6.25091 17.489 6.25116C18.0698 6.25116 18.6673 6.4784 19.2113 6.91337C19.9962 7.54081 20.5615 8.49872 20.8031 9.61073C21.268 11.7489 20.324 13.8459 18.7419 14.1898C18.0231 14.3461 17.2473 14.1285 16.5576 13.577C15.7728 12.9495 15.2074 11.9916 14.9658 10.8797C14.5009 8.7409 15.4448 6.64393 17.0269 6.29999ZM45.6223 14.2216C44.1547 13.3743 42.3984 13.2696 40.6776 13.9269C39.0704 14.5409 37.675 15.7629 36.7484 17.368C35.8217 18.973 35.461 20.7925 35.7327 22.4913C36.0239 24.3103 36.9925 25.7788 38.4604 26.6262C39.2846 27.1023 40.2205 27.3513 41.1724 27.3477C41.9365 27.3431 42.6932 27.1985 43.4051 26.9209C45.0122 26.307 46.4076 25.0849 47.3343 23.4799C49.309 20.0599 48.5409 15.9067 45.6223 14.2216ZM44.6281 21.9174C44.0592 22.9028 43.2289 23.6431 42.2901 24.0015C41.4653 24.3168 40.6601 24.2878 40.0231 23.9198C39.386 23.5518 38.9586 22.8693 38.8187 21.9973C38.6599 21.0051 38.8857 19.9159 39.4547 18.9309C40.0237 17.946 40.8539 17.2054 41.7927 16.8467C42.1465 16.7074 42.5227 16.6339 42.9028 16.6298C43.3081 16.6254 43.7073 16.7285 44.0598 16.9284C45.4619 17.7375 45.7222 20.0223 44.6281 21.9174ZM30.5945 17.2431C30.9696 17.3248 31.3522 17.3661 31.736 17.3662C33.0173 17.3662 34.2849 16.9044 35.3941 16.0174C36.7377 14.9432 37.6945 13.3541 38.0882 11.543C38.927 7.68407 36.9302 3.96219 33.637 3.24637C31.9811 2.88641 30.2765 3.32157 28.8375 4.47206C27.4938 5.54628 26.5369 7.13534 26.1434 8.94637C25.3045 12.8053 27.3013 16.5271 30.5945 17.2431ZM29.1971 9.61024C29.4387 8.49823 30.004 7.53993 30.7889 6.91288C31.333 6.47792 31.9304 6.25067 32.5112 6.25067C32.6666 6.25042 32.8215 6.26679 32.9734 6.2995C34.5554 6.64344 35.4993 8.74091 35.0346 10.8786C34.7928 11.9906 34.2275 12.9489 33.4428 13.5761C32.7532 14.1274 31.9779 14.345 31.2585 14.1889C29.6762 13.8454 28.7322 11.7481 29.1971 9.61024Z" fill="white"/>
</svg>
