<svg width="50" height="50" viewBox="0 0 50 50" fill="none" xmlns="http://www.w3.org/2000/svg">
<path d="M6.77316 38.1625L23.1999 47.4955C24.4142 48.1866 25.5437 48.2071 26.7999 47.4955L43.2267 38.1625C45.1732 37.0536 46.2401 35.9232 46.2401 32.8893V16.3152C46.2401 13.9929 45.3196 12.6741 43.6035 11.6902L28.8089 3.27857C26.2348 1.79285 23.7232 1.81428 21.191 3.27857L6.39637 11.6911C4.6803 12.6741 3.75977 13.9929 3.75977 16.3161V32.8893C3.75977 35.9232 4.82673 37.0536 6.77316 38.1625ZM34.8357 17.6759L18.8267 8.63571L22.6776 6.43839C24.2669 5.53839 25.6901 5.51785 27.3232 6.43839L40.9455 14.2232L34.8357 17.6759ZM24.9999 23.2411L9.05352 14.2232L15.3107 10.6446L31.2571 19.7054L24.9999 23.2411ZM8.74102 35.233C7.54727 34.5634 7.14994 33.9143 7.14994 32.7848V17.1732L23.2419 26.3607V43.4777L8.74102 35.233ZM41.2598 35.233L26.758 43.4777V26.3598L42.8499 17.1732V32.7857C42.8499 33.9152 42.4526 34.5643 41.2598 35.2339" fill="white"/>
</svg>
