<?xml version="1.0" encoding="utf-8"?>
<!-- Uploaded to: SVG Repo, www.svgrepo.com, Generator: SVG Repo Mixer Tools -->
<svg fill="#000000" width="800px" height="800px" viewBox="0 0 32 32" version="1.1" xmlns="http://www.w3.org/2000/svg">
<title>leaf</title>
<path d="M29.555 2.843c-0.072-0.276-0.291-0.486-0.565-0.546l-0.005-0.001c-0.046-0.010-0.099-0.016-0.153-0.016-0.238 0-0.451 0.109-0.59 0.281l-0.001 0.001c-1.698 2.005-3.923 3.515-6.462 4.32l-0.099 0.027c-1.693 0.552-3.662 0.946-5.697 1.103l-0.088 0.005c-2.231 0.083-4.325 0.58-6.236 1.417l0.11-0.043c-3.3 1.788-5.502 5.225-5.502 9.176 0 0.062 0.001 0.124 0.002 0.186l-0-0.009c0.009 0.303 0.030 0.602 0.064 0.9 0.154 1.198 0.484 2.285 0.966 3.285l-0.028-0.064c-1.539 1.982-2.868 4.245-3.886 6.67l-0.073 0.197c-0.038 0.087-0.060 0.188-0.060 0.295 0 0.414 0.336 0.75 0.75 0.75 0.308 0 0.572-0.185 0.688-0.45l0.002-0.005c0.964-2.307 2.092-4.294 3.425-6.123l-0.059 0.085c1.137 1.755 2.709 3.14 4.567 4.021l0.067 0.029c1.421 0.649 3.083 1.028 4.833 1.028 0.027 0 0.053-0 0.079-0l-0.004 0c1.889-0.009 3.686-0.392 5.324-1.081l-0.092 0.034c5.262-2.385 9.002-7.306 9.678-13.16l0.007-0.077c0.147-1.13 0.231-2.436 0.231-3.762 0-3.018-0.436-5.935-1.247-8.69l0.055 0.217zM29.031 14.855c-0.604 5.397-3.991 9.883-8.674 12.030l-0.094 0.038c-1.334 0.593-2.891 0.939-4.528 0.939-1.599 0-3.121-0.329-4.501-0.924l0.074 0.028c-1.81-0.853-3.27-2.198-4.242-3.864l-0.024-0.045c3.317-3.812 7.63-5.711 13.801-6.312 0.38-0.040 0.674-0.358 0.674-0.746 0-0.414-0.336-0.75-0.75-0.75-0.024 0-0.048 0.001-0.072 0.003l0.003-0c-5.639 0.209-10.681 2.598-14.343 6.343l-0.004 0.004c-0.244-0.617-0.431-1.336-0.526-2.083l-0.005-0.045c-0.030-0.256-0.048-0.512-0.055-0.768-0.001-0.049-0.002-0.108-0.002-0.166 0-3.358 1.869-6.279 4.623-7.78l0.046-0.023c1.65-0.708 3.565-1.152 5.575-1.225l0.028-0.001c2.247-0.173 4.33-0.592 6.313-1.232l-0.192 0.054c2.448-0.8 4.547-2.082 6.279-3.744l-0.006 0.005c0.523 2.020 0.823 4.338 0.823 6.727 0 1.247-0.082 2.475-0.24 3.678l0.015-0.142z"></path>
</svg>