<svg width="50" height="50" viewBox="0 0 50 50" fill="none" xmlns="http://www.w3.org/2000/svg">
<path d="M14.5833 33.9584C19.1667 33.9584 22.9167 30.1459 22.9167 25.5209C22.9167 23.1042 21.7292 20.8126 19.3542 18.8751C16.9792 16.9376 15.1875 14.0626 14.5833 11.0417C13.9792 14.0626 12.2083 16.9584 9.8125 18.8751C7.41667 20.7917 6.25 23.1251 6.25 25.5209C6.25 30.1459 10 33.9584 14.5833 33.9584Z" stroke="white" stroke-width="2" stroke-linecap="round" stroke-linejoin="round"/>
<path d="M26.1667 13.7501C27.5983 11.4602 28.6139 8.93521 29.1667 6.29175C30.2083 11.5001 33.3333 16.5001 37.5 19.8334C41.6667 23.1667 43.75 27.1251 43.75 31.2917C43.7619 34.1715 42.9185 36.99 41.3267 39.3898C39.7348 41.7897 37.4663 43.6629 34.8086 44.7719C32.1509 45.881 29.2238 46.1759 26.3983 45.6194C23.5728 45.0629 20.9761 43.6799 18.9375 41.6459" stroke="white" stroke-width="2" stroke-linecap="round" stroke-linejoin="round"/>
</svg>
