<svg width="51" height="51" viewBox="0 0 51 51" fill="none" xmlns="http://www.w3.org/2000/svg">
<path d="M25.5 0C39.5979 0 51 11.4021 51 25.5C51 39.5979 39.5979 51 25.5 51C11.4021 51 0 39.5979 0 25.5C0 11.4021 11.4021 0 25.5 0ZM20.8371 38.9421C32.13 38.9421 38.3229 29.58 38.3229 21.4564V20.655C39.525 19.7807 40.5814 18.6879 41.3829 17.4493C40.29 17.9229 39.0879 18.2507 37.8493 18.4329C39.1243 17.6679 40.1079 16.4657 40.545 15.045C39.3429 15.7371 38.0314 16.2471 36.6471 16.5386C35.5179 15.3364 33.915 14.6079 32.1664 14.6079C28.7786 14.6079 26.01 17.3764 26.01 20.7643C26.01 21.2379 26.0464 21.7114 26.1921 22.1486C21.0921 21.8936 16.5386 19.4529 13.515 15.7371C13.005 16.6479 12.6771 17.7043 12.6771 18.8336C12.6771 20.9464 13.77 22.8407 15.4093 23.9336C14.3893 23.9336 13.4421 23.6421 12.6407 23.1686V23.2414C12.6407 26.2286 14.7536 28.7057 17.5586 29.2886C17.0486 29.4343 16.5021 29.5071 15.9557 29.5071C15.555 29.5071 15.1907 29.4707 14.79 29.3979C15.555 31.8386 17.85 33.6236 20.5093 33.66C18.3964 35.2993 15.7371 36.2829 12.8593 36.2829C12.3493 36.2829 11.8757 36.2829 11.4021 36.21C14.0979 37.9586 17.34 38.9786 20.8007 38.9786" fill="white"/>
</svg>
