<svg width="50" height="50" viewBox="0 0 50 50" fill="none" xmlns="http://www.w3.org/2000/svg">
<path d="M9.37467 12.5001C11.6759 12.5001 13.5413 10.6346 13.5413 8.33342C13.5413 6.03223 11.6759 4.16675 9.37467 4.16675C7.07349 4.16675 5.20801 6.03223 5.20801 8.33342C5.20801 10.6346 7.07349 12.5001 9.37467 12.5001Z" stroke="white" stroke-width="2"/>
<path d="M5.20801 18.75H13.5413V44.7917H5.20801V18.75ZM21.8747 28.6458V44.7917H29.1663V30.2083C29.1663 27.6042 30.7288 25.5208 33.333 25.5208C35.9372 25.5208 37.4997 28.125 37.4997 30.2083V44.7917H44.7913V28.6458C44.7913 25.5208 41.1455 18.75 33.333 18.75C25.5205 18.75 21.8747 25.5208 21.8747 28.6458Z" stroke="white" stroke-width="2" stroke-linejoin="round"/>
</svg>
