<svg width="50" height="50" viewBox="0 0 50 50" fill="none" xmlns="http://www.w3.org/2000/svg">
<path d="M33.3691 4.16675H16.5566C13.2715 4.17061 10.1221 5.47746 7.79934 7.80057C5.47662 10.1237 4.1703 13.2733 4.16699 16.5584L4.16699 33.3709C4.17085 36.656 5.47771 39.8054 7.80082 42.1281C10.1239 44.4509 13.2736 45.7572 16.5587 45.7605H33.3712C36.6563 45.7566 39.8057 44.4498 42.1284 42.1267C44.4511 39.8036 45.7574 36.6539 45.7607 33.3688V16.5563C45.7569 13.2712 44.45 10.1218 42.1269 7.7991C39.8038 5.47638 36.6542 4.17006 33.3691 4.16675ZM41.5774 33.3688C41.5774 34.4468 41.3651 35.5141 40.9526 36.51C40.5401 37.5059 39.9355 38.4108 39.1732 39.173C38.411 39.9352 37.5061 40.5398 36.5103 40.9523C35.5144 41.3648 34.447 41.5772 33.3691 41.5772H16.5566C14.38 41.5766 12.2927 40.7116 10.7538 39.1723C9.21484 37.633 8.35033 35.5455 8.35033 33.3688V16.5563C8.35088 14.3797 9.21593 12.2924 10.7552 10.7535C12.2945 9.2146 14.382 8.35008 16.5587 8.35008H33.3712C35.5478 8.35063 37.6351 9.21568 39.174 10.755C40.7129 12.2943 41.5774 14.3818 41.5774 16.5584V33.3688Z" fill="white"/>
<path d="M24.9632 14.2063C22.112 14.2107 19.3788 15.3454 17.3629 17.3617C15.347 19.378 14.2128 22.1114 14.209 24.9626C14.2123 27.8145 15.3465 30.5487 17.3629 32.5655C19.3794 34.5823 22.1133 35.717 24.9652 35.7209C27.8175 35.7176 30.552 34.583 32.5689 32.5662C34.5857 30.5493 35.7203 27.8148 35.7236 24.9626C35.7192 22.1106 34.5839 19.3769 32.5667 17.3609C30.5495 15.3448 27.8151 14.2111 24.9632 14.2084V14.2063ZM24.9632 31.5375C23.2199 31.5375 21.5481 30.845 20.3154 29.6124C19.0827 28.3797 18.3902 26.7079 18.3902 24.9646C18.3902 23.2214 19.0827 21.5495 20.3154 20.3169C21.5481 19.0842 23.2199 18.3917 24.9632 18.3917C26.7064 18.3917 28.3782 19.0842 29.6109 20.3169C30.8436 21.5495 31.5361 23.2214 31.5361 24.9646C31.5361 26.7079 30.8436 28.3797 29.6109 29.6124C28.3782 30.845 26.7064 31.5375 24.9632 31.5375Z" fill="white"/>
<path d="M35.7421 16.8646C37.1654 16.8646 38.3192 15.7108 38.3192 14.2875C38.3192 12.8642 37.1654 11.7104 35.7421 11.7104C34.3188 11.7104 33.165 12.8642 33.165 14.2875C33.165 15.7108 34.3188 16.8646 35.7421 16.8646Z" fill="white"/>
</svg>
