<svg width="16" height="16" viewBox="0 0 16 16" fill="none" xmlns="http://www.w3.org/2000/svg">
<g clip-path="url(#clip0_390_279)">
<path d="M14.1836 1.27022C12.0743 3.09572 10.2898 4.83347 8.65607 7.10072C7.93557 8.10072 7.13432 9.27772 6.61057 10.389C6.31157 10.9782 5.77257 11.899 5.58882 12.7842C4.58382 11.8492 3.50432 10.788 2.39982 9.95672C1.61257 9.36447 -0.654934 10.572 0.268066 11.2665C1.92232 12.5107 3.29807 14.0605 4.90707 15.3602C5.58007 15.9032 7.07157 14.724 7.42207 14.2292C8.57257 12.5992 8.72982 10.6067 9.56832 8.82872C10.8486 6.10947 13.1191 3.87572 15.3608 1.93597C16.8461 0.550724 15.3121 0.295224 14.1858 1.27022" fill="#37B34A"/>
</g>
<defs>
<clipPath id="clip0_390_279">
<rect width="16" height="16" fill="white"/>
</clipPath>
</defs>
</svg>
