<?xml version="1.0" encoding="iso-8859-1"?>
<!-- Uploaded to: SVG Repo, www.svgrepo.com, Generator: SVG Repo Mixer Tools -->
<!DOCTYPE svg PUBLIC "-//W3C//DTD SVG 1.1//EN" "http://www.w3.org/Graphics/SVG/1.1/DTD/svg11.dtd">
<svg fill="#000000" version="1.1" id="Capa_1" xmlns="http://www.w3.org/2000/svg" xmlns:xlink="http://www.w3.org/1999/xlink" 
	 width="800px" height="800px" viewBox="0 0 291.414 291.413"
	 xml:space="preserve">
<g>
	<g>
		<path d="M145.713,71.316c-41.013,0-74.384,33.362-74.384,74.384c0,41.013,33.372,74.382,74.384,74.382
			c41.013,0,74.381-33.369,74.381-74.382C220.094,104.679,186.726,71.316,145.713,71.316z M145.713,206.805
			c-33.69,0-61.108-27.411-61.108-61.104c0-33.699,27.418-61.11,61.108-61.11c33.693,0,61.099,27.412,61.099,61.11
			C206.812,179.394,179.417,206.805,145.713,206.805z"/>
		<path d="M145.713,111.05c-19.098,0-34.651,15.543-34.651,34.65c0,19.107,15.546,34.666,34.651,34.666
			c19.113,0,34.66-15.553,34.66-34.666C180.373,126.593,164.826,111.05,145.713,111.05z M145.713,165.709
			c-11.037,0-20.008-8.96-20.008-20.009c0-11.052,8.972-20.011,20.008-20.011c11.048,0,20.008,8.959,20.008,20.011
			C165.721,156.749,156.761,165.709,145.713,165.709z"/>
		<path d="M145.713,0C65.384,0,0.006,65.356,0.006,145.7c0,80.345,65.377,145.713,145.707,145.713
			c80.338,0,145.694-65.368,145.694-145.713C291.407,65.356,226.051,0,145.713,0z M145.713,246.533
			c-55.592,0-100.824-45.24-100.824-100.833c0-55.595,45.231-100.838,100.824-100.838c55.604,0,100.827,45.243,100.827,100.838
			C246.551,201.293,201.317,246.533,145.713,246.533z"/>
	</g>
</g>
</svg>