<svg width="54" height="54" viewBox="0 0 54 54" fill="none" xmlns="http://www.w3.org/2000/svg">
<path d="M24.7499 45C20.799 45.012 16.988 43.5386 14.0726 40.8722C11.1572 38.2057 9.35037 34.541 9.01055 30.6047C8.67073 26.6685 9.8227 22.7483 12.238 19.6217C14.6533 16.495 18.1554 14.3903 22.0499 13.725C34.8749 11.25 38.2499 10.08 42.7499 4.5C44.9999 9 47.2499 13.905 47.2499 22.5C47.2499 34.875 36.4949 45 24.7499 45Z" stroke="white" stroke-width="2" stroke-linecap="round" stroke-linejoin="round"/>
<path d="M4.5 47.25C4.5 40.5 8.6625 35.19 15.93 33.75C21.375 32.67 27 29.25 29.25 27" stroke="white" stroke-width="2" stroke-linecap="round" stroke-linejoin="round"/>
</svg>
