<svg width="50" height="50" viewBox="0 0 50 50" fill="none" xmlns="http://www.w3.org/2000/svg">
<path d="M2.89561 39.5832L21.8123 20.6457C19.8748 15.7707 20.8331 10.0207 24.8123 6.0624C29.6039 1.27073 37.0623 0.833232 42.3748 4.70823L34.3748 12.7291L37.3331 15.6249L45.3123 7.6874C49.1873 12.9791 48.7498 20.4582 43.9581 25.2291C40.0831 29.1041 34.4373 30.1249 29.6039 28.3124L10.6248 47.2916C9.81227 48.1041 8.49978 48.1041 7.68728 47.2916L2.89561 42.4999C2.08311 41.6666 2.08311 40.3957 2.89561 39.5832ZM9.14561 42.8957L28.8539 23.1874C30.1248 24.1249 31.5414 24.6874 33.0206 24.8957C35.8539 25.3124 38.8331 24.4582 40.9998 22.2916C42.9789 20.3332 43.8956 17.7082 43.7498 15.1249L37.3123 21.5624L28.4789 12.7291L34.9164 6.2499C32.2914 6.14573 29.7289 7.0624 27.7498 9.02073C26.6843 10.0846 25.8927 11.3909 25.4428 12.8278C24.9928 14.2647 24.898 15.7892 25.1664 17.2707C25.4265 18.7637 26.0569 20.1677 26.9998 21.3541L7.29144 41.0416L9.14561 42.8957Z" fill="white"/>
</svg>
